<svg width="21" height="22" viewBox="0 0 21 22" fill="none" xmlns="http://www.w3.org/2000/svg">
<path d="M12.7108 13.4235C12.7108 13.4235 12.8782 13.2561 13.213 12.9213C13.5479 12.5865 13.7153 11.9459 13.7153 10.9994C13.7153 10.053 13.3804 9.24498 12.7108 8.57533C12.0412 7.90569 11.2331 7.57087 10.2867 7.57087C9.34026 7.57087 8.53223 7.90569 7.86258 8.57533C7.19294 9.24498 6.85812 10.053 6.85812 10.9994C6.85812 11.9459 7.19294 12.7539 7.86258 13.4235C8.53223 14.0932 9.34026 14.428 10.2867 14.428C11.2331 14.428 12.0412 14.0932 12.7108 13.4235ZM14.0233 7.26283C14.0233 7.26283 14.28 7.51953 14.7934 8.03292C15.3068 8.54632 15.5635 9.53516 15.5635 10.9994C15.5635 12.4637 15.0501 13.7093 14.0233 14.736C12.9965 15.7628 11.751 16.2762 10.2867 16.2762C8.8224 16.2762 7.57687 15.7628 6.55008 14.736C5.5233 13.7093 5.00991 12.4637 5.00991 10.9994C5.00991 9.53516 5.5233 8.28962 6.55008 7.26283C7.57687 6.23605 8.8224 5.72266 10.2867 5.72266C11.751 5.72266 12.9965 6.23605 14.0233 7.26283ZM16.6483 4.63783C16.6483 4.63783 16.7086 4.6981 16.8291 4.81864C16.9496 4.93917 17.0099 5.16908 17.0099 5.50837C17.0099 5.84766 16.8894 6.13783 16.6483 6.37891C16.4072 6.61998 16.117 6.74051 15.7778 6.74051C15.4385 6.74051 15.1483 6.61998 14.9072 6.37891C14.6662 6.13783 14.5456 5.84766 14.5456 5.50837C14.5456 5.16908 14.6662 4.87891 14.9072 4.63783C15.1483 4.39676 15.4385 4.27623 15.7778 4.27623C16.117 4.27623 16.4072 4.39676 16.6483 4.63783ZM11.3112 2.55524C11.3112 2.55524 11.1561 2.55636 10.8458 2.55859C10.5356 2.56083 10.3492 2.56194 10.2867 2.56194C10.2242 2.56194 9.88267 2.55971 9.26214 2.55524C8.6416 2.55078 8.17062 2.55078 7.84919 2.55524C7.52776 2.55971 7.09696 2.5731 6.55678 2.59542C6.0166 2.61774 5.55678 2.66239 5.17732 2.72935C4.79785 2.79632 4.47866 2.87891 4.21973 2.97712C3.7733 3.15569 3.38044 3.41462 3.04116 3.75391C2.70187 4.09319 2.44294 4.48605 2.26437 4.93248C2.16616 5.19141 2.08357 5.5106 2.0166 5.89007C1.94964 6.26953 1.90499 6.72935 1.88267 7.26953C1.86035 7.80971 1.84696 8.24051 1.84249 8.56194C1.83803 8.88337 1.83803 9.35435 1.84249 9.97489C1.84696 10.5954 1.84919 10.9369 1.84919 10.9994C1.84919 11.0619 1.84696 11.4035 1.84249 12.024C1.83803 12.6445 1.83803 13.1155 1.84249 13.4369C1.84696 13.7584 1.86035 14.1892 1.88267 14.7294C1.90499 15.2695 1.94964 15.7294 2.0166 16.1088C2.08357 16.4883 2.16616 16.8075 2.26437 17.0664C2.44294 17.5128 2.70187 17.9057 3.04116 18.245C3.38044 18.5843 3.7733 18.8432 4.21973 19.0218C4.47866 19.12 4.79785 19.2026 5.17732 19.2695C5.55678 19.3365 6.0166 19.3811 6.55678 19.4035C7.09696 19.4258 7.52776 19.4392 7.84919 19.4436C8.17062 19.4481 8.6416 19.4481 9.26214 19.4436C9.88267 19.4392 10.2242 19.4369 10.2867 19.4369C10.3492 19.4369 10.6907 19.4392 11.3112 19.4436C11.9318 19.4481 12.4028 19.4481 12.7242 19.4436C13.0456 19.4392 13.4764 19.4258 14.0166 19.4035C14.5568 19.3811 15.0166 19.3365 15.3961 19.2695C15.7755 19.2026 16.0947 19.12 16.3537 19.0218C16.8001 18.8432 17.1929 18.5843 17.5322 18.245C17.8715 17.9057 18.1304 17.5128 18.309 17.0664C18.4072 16.8075 18.4898 16.4883 18.5568 16.1088C18.6237 15.7294 18.6684 15.2695 18.6907 14.7294C18.713 14.1892 18.7264 13.7584 18.7309 13.4369C18.7354 13.1155 18.7354 12.6445 18.7309 12.024C18.7264 11.4035 18.7242 11.0619 18.7242 10.9994C18.7242 10.9369 18.7264 10.5954 18.7309 9.97489C18.7354 9.35435 18.7354 8.88337 18.7309 8.56194C18.7264 8.24051 18.713 7.80971 18.6907 7.26953C18.6684 6.72935 18.6237 6.26953 18.5568 5.89007C18.4898 5.5106 18.4072 5.19141 18.309 4.93248C18.1304 4.48605 17.8715 4.09319 17.5322 3.75391C17.1929 3.41462 16.8001 3.15569 16.3537 2.97712C16.0947 2.87891 15.7755 2.79632 15.3961 2.72935C15.0166 2.66239 14.5568 2.61774 14.0166 2.59542C13.4764 2.5731 13.0456 2.55971 12.7242 2.55524C12.4028 2.55078 11.9318 2.55078 11.3112 2.55524ZM20.5054 6.75391C20.5501 7.53962 20.5724 8.9548 20.5724 10.9994C20.5724 13.0441 20.5501 14.4593 20.5054 15.245C20.4162 17.1021 19.8626 18.5396 18.8447 19.5575C17.8269 20.5753 16.3894 21.1289 14.5322 21.2182C13.7465 21.2628 12.3313 21.2852 10.2867 21.2852C8.24205 21.2852 6.82687 21.2628 6.04116 21.2182C4.18401 21.1289 2.74651 20.5753 1.72866 19.5575C0.710798 18.5396 0.157227 17.1021 0.0679408 15.245C0.023298 14.4593 0.000976562 13.0441 0.000976562 10.9994C0.000976562 8.9548 0.023298 7.53962 0.0679408 6.75391C0.157227 4.89676 0.710798 3.45926 1.72866 2.44141C2.74651 1.42355 4.18401 0.869978 6.04116 0.780691C6.82687 0.73605 8.24205 0.713728 10.2867 0.713728C12.3313 0.713728 13.7465 0.73605 14.5322 0.780691C16.3894 0.869978 17.8269 1.42355 18.8447 2.44141C19.8626 3.45926 20.4162 4.89676 20.5054 6.75391Z" fill="#fefefa"/>
</svg>
