<svg width="21" height="22" viewBox="0 0 21 22" fill="none" xmlns="http://www.w3.org/2000/svg">
<path d="M3.17508 17.9369H6.26883V8.6423H3.17508V17.9369ZM6.46973 5.77623C6.4608 5.31194 6.30008 4.92801 5.98758 4.62444C5.67508 4.32087 5.25991 4.16908 4.74205 4.16908C4.22419 4.16908 3.80232 4.32087 3.47642 4.62444C3.15053 4.92801 2.98758 5.31194 2.98758 5.77623C2.98758 6.23158 3.14607 6.61328 3.46303 6.92132C3.77999 7.22935 4.19294 7.38337 4.70187 7.38337H4.71526C5.24205 7.38337 5.66616 7.22935 5.98758 6.92132C6.30901 6.61328 6.46973 6.23158 6.46973 5.77623ZM14.3045 17.9369H17.3983V12.6066C17.3983 11.2316 17.0724 10.1914 16.4206 9.48605C15.7688 8.78069 14.9072 8.42801 13.8358 8.42801C12.6215 8.42801 11.6885 8.95033 11.0367 9.99498H11.0635V8.6423H7.96973C7.99651 9.23158 7.99651 12.3298 7.96973 17.9369H11.0635V12.7405C11.0635 12.4012 11.0947 12.1512 11.1572 11.9905C11.2912 11.678 11.492 11.4124 11.7599 11.1936C12.0278 10.9749 12.3581 10.8655 12.751 10.8655C13.7867 10.8655 14.3045 11.5664 14.3045 12.9682V17.9369ZM20.5724 4.57087V17.428C20.5724 18.4905 20.1952 19.399 19.4407 20.1535C18.6862 20.9079 17.7778 21.2852 16.7153 21.2852H3.85812C2.79562 21.2852 1.88714 20.9079 1.13267 20.1535C0.378209 19.399 0.000976562 18.4905 0.000976562 17.428V4.57087C0.000976562 3.50837 0.378209 2.59989 1.13267 1.84542C1.88714 1.09096 2.79562 0.713728 3.85812 0.713728H16.7153C17.7778 0.713728 18.6862 1.09096 19.4407 1.84542C20.1952 2.59989 20.5724 3.50837 20.5724 4.57087Z" fill="#fefefa"/>
</svg>
