<svg width="20" height="20" viewBox="0 0 20 20" fill="none" xmlns="http://www.w3.org/2000/svg">
<path d="M19.807 18.874L13.54 12.607C14.7024 11.2245 15.3398 9.47623 15.34 7.67C15.34 3.462 11.878 0 7.67 0C3.462 0 0 3.462 0 7.67C0 11.878 3.462 15.34 7.67 15.34C9.47623 15.3398 11.2245 14.7024 12.607 13.54L18.874 19.807C18.996 19.923 19.159 19.987 19.327 19.987C19.689 19.987 19.987 19.689 19.987 19.327C19.9872 19.1585 19.9228 18.9964 19.807 18.874ZM7.674 14.007C4.2 14.007 1.341 11.147 1.341 7.674C1.34 4.2 4.2 1.34 7.674 1.34C11.148 1.34 14.007 4.199 14.007 7.673C14 11.146 11.146 14 7.674 14.007Z" fill="#707070"/>
</svg>