<svg width="20" height="24" viewBox="0 0 20 24" fill="none" xmlns="http://www.w3.org/2000/svg">
<path d="M12.6438 16.6607V19.4866C12.6438 20.0848 12.4697 20.3839 12.1215 20.3839C11.9162 20.3839 11.7153 20.2857 11.5188 20.0893V16.058C11.7153 15.8616 11.9162 15.7634 12.1215 15.7634C12.4697 15.7634 12.6438 16.0625 12.6438 16.6607ZM17.1706 16.6741V17.2902H15.9653V16.6741C15.9653 16.067 16.1662 15.7634 16.5679 15.7634C16.9697 15.7634 17.1706 16.067 17.1706 16.6741ZM4.23312 13.7545H5.66616V12.4955H1.48758V13.7545H2.89383V21.375H4.23312V13.7545ZM8.09026 21.375H9.28223V14.7589H8.09026V19.8214C7.82241 20.1964 7.56794 20.3839 7.32687 20.3839C7.16616 20.3839 7.07241 20.2902 7.04562 20.1027C7.03669 20.0759 7.03223 19.9196 7.03223 19.6339V14.7589H5.84026V19.9955C5.84026 20.433 5.87598 20.7589 5.94741 20.9732C6.05455 21.3036 6.31348 21.4688 6.72419 21.4688C7.15276 21.4688 7.60812 21.1964 8.09026 20.6518V21.375ZM13.8358 19.3929V16.7545C13.8358 16.1027 13.7956 15.6607 13.7153 15.4286C13.5635 14.9286 13.2465 14.6786 12.7644 14.6786C12.3179 14.6786 11.9028 14.9196 11.5188 15.4018V12.4955H10.3269V21.375H11.5188V20.7321C11.9206 21.2232 12.3358 21.4688 12.7644 21.4688C13.2465 21.4688 13.5635 21.2232 13.7153 20.7321C13.7956 20.4911 13.8358 20.0446 13.8358 19.3929ZM18.3626 19.2589V19.0848H17.1438C17.1438 19.5402 17.1349 19.8125 17.117 19.9018C17.0545 20.2232 16.876 20.3839 16.5813 20.3839C16.1706 20.3839 15.9653 20.0759 15.9653 19.4598V18.2946H18.3626V16.9152C18.3626 16.2098 18.242 15.692 18.001 15.3616C17.6528 14.9062 17.1795 14.6786 16.5813 14.6786C15.9742 14.6786 15.4965 14.9062 15.1483 15.3616C14.8983 15.692 14.7733 16.2098 14.7733 16.9152V19.2321C14.7733 19.9375 14.9028 20.4554 15.1617 20.7857C15.5099 21.2411 15.992 21.4688 16.6081 21.4688C17.251 21.4688 17.7331 21.2321 18.0545 20.7589C18.2153 20.5179 18.309 20.2768 18.3358 20.0357C18.3537 19.9554 18.3626 19.6964 18.3626 19.2589ZM10.2197 7.03125V4.21875C10.2197 3.60268 10.0278 3.29464 9.64383 3.29464C9.2599 3.29464 9.06794 3.60268 9.06794 4.21875V7.03125C9.06794 7.65625 9.2599 7.96875 9.64383 7.96875C10.0278 7.96875 10.2197 7.65625 10.2197 7.03125ZM19.8492 17.0893C19.8492 19.1786 19.7331 20.7411 19.501 21.7768C19.376 22.3036 19.117 22.7455 18.7242 23.1027C18.3313 23.4598 17.876 23.6652 17.3581 23.7188C15.7153 23.9062 13.2376 24 9.92508 24C6.61258 24 4.13491 23.9062 2.49205 23.7188C1.97419 23.6652 1.5166 23.4598 1.11928 23.1027C0.721959 22.7455 0.465262 22.3036 0.349191 21.7768C0.117048 20.7768 0.000976562 19.2143 0.000976562 17.0893C0.000976562 15 0.117048 13.4375 0.349191 12.4018C0.474191 11.875 0.733119 11.433 1.12598 11.0759C1.51883 10.7188 1.97866 10.5089 2.50544 10.4464C4.13937 10.2679 6.61258 10.1786 9.92508 10.1786C13.2376 10.1786 15.7153 10.2679 17.3581 10.4464C17.876 10.5089 18.3336 10.7188 18.7309 11.0759C19.1282 11.433 19.3849 11.875 19.501 12.4018C19.7331 13.4018 19.8492 14.9643 19.8492 17.0893ZM6.48312 0H7.84919L6.22866 5.34375V8.97321H4.88937V5.34375C4.76437 4.68303 4.49205 3.73661 4.07241 2.50446C3.74205 1.58482 3.45187 0.75 3.20187 0H4.62151L5.57241 3.52232L6.48312 0ZM11.4385 4.45982V6.80357C11.4385 7.52678 11.3135 8.05357 11.0635 8.38393C10.7331 8.83929 10.2599 9.06696 9.64383 9.06696C9.04562 9.06696 8.57687 8.83929 8.23758 8.38393C7.98758 8.04464 7.86258 7.51786 7.86258 6.80357V4.45982C7.86258 3.74553 7.98758 3.22321 8.23758 2.89286C8.57687 2.4375 9.04562 2.20982 9.64383 2.20982C10.2599 2.20982 10.7331 2.4375 11.0635 2.89286C11.3135 3.22321 11.4385 3.74553 11.4385 4.45982ZM15.9251 2.29018V8.97321H14.7063V8.23661C14.2331 8.79018 13.7733 9.06696 13.3269 9.06696C12.9162 9.06696 12.6528 8.90179 12.5367 8.57143C12.4653 8.35714 12.4295 8.02232 12.4295 7.56696V2.29018H13.6483V7.20536C13.6483 7.5 13.6528 7.65625 13.6617 7.67411C13.6885 7.87053 13.7822 7.96875 13.9429 7.96875C14.184 7.96875 14.4385 7.77678 14.7063 7.39286V2.29018H15.9251Z" fill="fefefa"/>
</svg>
